<mxfile host="Electron" agent="Mozilla/5.0 (X11; Linux x86_64) AppleWebKit/537.36 (KHTML, like Gecko) draw.io/28.1.2 Chrome/138.0.7204.243 Electron/37.4.0 Safari/537.36" version="28.1.2">
  <diagram name="Page-1" id="VpRImV_lAUAAagEEaz_6">
    <mxGraphModel dx="1580" dy="1973" grid="1" gridSize="10" guides="1" tooltips="1" connect="1" arrows="1" fold="1" page="1" pageScale="1" pageWidth="850" pageHeight="1100" math="0" shadow="0">
      <root>
        <mxCell id="0" />
        <mxCell id="1" parent="0" />
        <mxCell id="4UaJMtBj_h-Qflq0AI8P-74" value="" style="rounded=1;whiteSpace=wrap;html=1;fillColor=#dae8fc;strokeColor=#6c8ebf;" parent="1" vertex="1">
          <mxGeometry x="160" y="480" width="200" height="120" as="geometry" />
        </mxCell>
        <mxCell id="4UaJMtBj_h-Qflq0AI8P-1" value="dl[n]" style="rounded=0;whiteSpace=wrap;html=1;" parent="1" vertex="1">
          <mxGeometry x="180" y="490" width="40" height="20" as="geometry" />
        </mxCell>
        <mxCell id="4UaJMtBj_h-Qflq0AI8P-2" value="" style="endArrow=none;html=1;rounded=0;entryX=0.5;entryY=1;entryDx=0;entryDy=0;exitX=0.75;exitY=1;exitDx=0;exitDy=0;" parent="1" target="4UaJMtBj_h-Qflq0AI8P-1" edge="1">
          <mxGeometry width="50" height="50" relative="1" as="geometry">
            <mxPoint x="200" y="560" as="sourcePoint" />
            <mxPoint x="470" y="1090" as="targetPoint" />
          </mxGeometry>
        </mxCell>
        <mxCell id="4UaJMtBj_h-Qflq0AI8P-11" value="" style="endArrow=none;html=1;rounded=0;exitX=0.25;exitY=1;exitDx=0;exitDy=0;" parent="1" edge="1">
          <mxGeometry width="50" height="50" relative="1" as="geometry">
            <mxPoint x="260" y="560" as="sourcePoint" />
            <mxPoint x="260" y="510" as="targetPoint" />
          </mxGeometry>
        </mxCell>
        <mxCell id="4UaJMtBj_h-Qflq0AI8P-12" value="now" style="rounded=0;whiteSpace=wrap;html=1;" parent="1" vertex="1">
          <mxGeometry x="240" y="490" width="40" height="20" as="geometry" />
        </mxCell>
        <mxCell id="4UaJMtBj_h-Qflq0AI8P-57" value="" style="endArrow=none;html=1;rounded=0;" parent="1" edge="1">
          <mxGeometry width="50" height="50" relative="1" as="geometry">
            <mxPoint x="190" y="560" as="sourcePoint" />
            <mxPoint x="190" y="560" as="targetPoint" />
            <Array as="points">
              <mxPoint x="180" y="560" />
              <mxPoint x="180" y="580" />
              <mxPoint x="210" y="590" />
              <mxPoint x="250" y="590" />
              <mxPoint x="280" y="580" />
              <mxPoint x="280" y="560" />
              <mxPoint x="240" y="560" />
              <mxPoint x="230" y="563" />
              <mxPoint x="220" y="560" />
            </Array>
          </mxGeometry>
        </mxCell>
        <mxCell id="4UaJMtBj_h-Qflq0AI8P-59" value="-" style="text;html=1;align=center;verticalAlign=middle;resizable=0;points=[];autosize=1;strokeColor=none;fillColor=none;" parent="1" vertex="1">
          <mxGeometry x="215" y="558" width="30" height="30" as="geometry" />
        </mxCell>
        <mxCell id="4UaJMtBj_h-Qflq0AI8P-79" value="p[n]" style="rounded=0;whiteSpace=wrap;html=1;" parent="1" vertex="1">
          <mxGeometry x="300" y="490" width="40" height="20" as="geometry" />
        </mxCell>
        <mxCell id="4UaJMtBj_h-Qflq0AI8P-80" value="" style="endArrow=none;html=1;rounded=0;entryX=0.5;entryY=1;entryDx=0;entryDy=0;" parent="1" target="4UaJMtBj_h-Qflq0AI8P-79" edge="1">
          <mxGeometry width="50" height="50" relative="1" as="geometry">
            <mxPoint x="320" y="600" as="sourcePoint" />
            <mxPoint x="260" y="600" as="targetPoint" />
          </mxGeometry>
        </mxCell>
        <mxCell id="4UaJMtBj_h-Qflq0AI8P-81" value="" style="endArrow=none;html=1;rounded=0;" parent="1" edge="1">
          <mxGeometry width="50" height="50" relative="1" as="geometry">
            <mxPoint x="230" y="600" as="sourcePoint" />
            <mxPoint x="230" y="600" as="targetPoint" />
            <Array as="points">
              <mxPoint x="230" y="590" />
            </Array>
          </mxGeometry>
        </mxCell>
      </root>
    </mxGraphModel>
  </diagram>
</mxfile>
